<svg width="48" height="49" viewBox="0 0 48 49" fill="none" xmlns="http://www.w3.org/2000/svg">
<path d="M24 48.9531C37.2548 48.9531 48 38.208 48 24.9531C48 11.6983 37.2548 0.953125 24 0.953125C10.7452 0.953125 0 11.6983 0 24.9531C0 38.208 10.7452 48.9531 24 48.9531Z" fill="url(#paint0_linear_1_20)"/>
<path d="M8.93825 26.1271C11.7439 24.5817 14.8757 23.2919 17.8019 21.9955C22.8361 19.8721 27.8903 17.7855 32.9955 15.8429C33.9887 15.5119 35.7735 15.1882 35.9485 16.6602C35.8526 18.7438 35.4584 20.8152 35.188 22.8866C34.5018 27.4418 33.7085 31.9814 32.935 36.5216C32.6685 38.0339 30.774 38.8168 29.5618 37.849C26.6486 35.8812 23.713 33.9326 20.837 31.9192C19.8949 30.9619 20.7686 29.5872 21.6099 28.9036C24.0093 26.539 26.5539 24.53 28.8279 22.0432C29.4413 20.5619 27.6289 21.8103 27.0311 22.1928C23.7463 24.4564 20.5419 26.8582 17.0787 28.8476C15.3097 29.8214 13.2479 28.9892 11.4797 28.4458C9.89431 27.7894 7.57109 27.1281 8.93809 26.1273L8.93825 26.1271Z" fill="white"/>
<defs>
<linearGradient id="paint0_linear_1_20" x1="32.002" y1="8.95472" x2="20.002" y2="36.9531" gradientUnits="userSpaceOnUse">
<stop stop-color="#37AEE2"/>
<stop offset="1" stop-color="#1E96C8"/>
</linearGradient>
</defs>
</svg>
