<svg width="48" height="49" viewBox="0 0 48 49" fill="none" xmlns="http://www.w3.org/2000/svg">
<g clip-path="url(#clip0_1_24)">
<path d="M48 24.3984C48 11.1422 37.2562 0.398438 24 0.398438C10.7438 0.398438 0 11.1422 0 24.3984C0 36.3797 8.775 46.3078 20.25 48.1078V31.3359H14.1562V24.3984H20.25V19.1109C20.25 13.0969 23.8313 9.77344 29.3156 9.77344C31.9406 9.77344 34.6875 10.2422 34.6875 10.2422V16.1484H31.6594C28.6781 16.1484 27.75 18 27.75 19.8984V24.3984H34.4062L33.3422 31.3359H27.75V48.1078C39.225 46.3078 48 36.3797 48 24.3984Z" fill="#1877F2"/>
<path d="M33.3422 31.3359L34.4062 24.3984H27.75V19.8984C27.75 18 28.6781 16.1484 31.6594 16.1484H34.6875V10.2422C34.6875 10.2422 31.9406 9.77344 29.3156 9.77344C23.8313 9.77344 20.25 13.0969 20.25 19.1109V24.3984H14.1562V31.3359H20.25V48.1078C21.4734 48.3 22.725 48.3984 24 48.3984C25.275 48.3984 26.5266 48.3 27.75 48.1078V31.3359H33.3422Z" fill="white"/>
</g>
<defs>
<clipPath id="clip0_1_24">
<rect width="48" height="48" fill="white" transform="translate(0 0.398438)"/>
</clipPath>
</defs>
</svg>
