<svg width="48" height="49" viewBox="0 0 48 49" fill="none" xmlns="http://www.w3.org/2000/svg">
<circle cx="24" cy="24.7676" r="24" fill="url(#paint0_linear_1_21)"/>
<path d="M31.897 15.1676H17.3031C15.6554 15.1676 14.4 16.423 14.4 18.0707V32.6645C14.4 34.3122 15.6554 35.5676 17.3031 35.5676H31.897C33.5446 35.5676 34.8 34.3122 34.8 32.6645V18.0707C34.8 16.423 33.5446 15.1676 31.897 15.1676ZM24.6 31.4876C27.9739 31.4876 30.72 28.8199 30.72 25.603C30.72 25.0537 30.6416 24.426 30.4846 23.9553H32.2108V32.2722C32.2108 32.6645 31.8969 33.0568 31.4262 33.0568H17.7739C17.3816 33.0568 16.9893 32.743 16.9893 32.2722V23.8768H18.7939C18.637 24.426 18.5585 24.9753 18.5585 25.5245C18.48 28.8199 21.2262 31.4876 24.6 31.4876ZM24.6 29.1337C22.4031 29.1337 20.6769 27.4076 20.6769 25.2891C20.6769 23.1707 22.4031 21.4445 24.6 21.4445C26.7969 21.4445 28.5231 23.1707 28.5231 25.2891C28.5231 27.486 26.7969 29.1337 24.6 29.1337ZM32.1323 20.7383C32.1323 21.2091 31.74 21.6014 31.2693 21.6014H29.0723C28.6016 21.6014 28.2093 21.2091 28.2093 20.7383V18.6199C28.2093 18.1491 28.6016 17.7568 29.0723 17.7568H31.2693C31.74 17.7568 32.1323 18.1491 32.1323 18.6199V20.7383Z" fill="white"/>
<defs>
<linearGradient id="paint0_linear_1_21" x1="10.2" y1="43.3676" x2="42" y2="10.3676" gradientUnits="userSpaceOnUse">
<stop stop-color="#EEA054"/>
<stop offset="0.502762" stop-color="#D64763"/>
<stop offset="1" stop-color="#B62A99"/>
</linearGradient>
</defs>
</svg>
